<svg xmlns="http://www.w3.org/2000/svg" width="200" height="73" viewBox="0 0 200 73">
  <defs>
    <style>
      .cls-1, .cls-2 {
        fill: #008fbb;
      }

      .cls-1, .cls-4 {
        fill-rule: evenodd;
      }

      .cls-3, .cls-4 {
        fill: #494849;
      }
    </style>
  </defs>
  <g id="BLEU" transform="translate(-298.612 -97.004)">
    <g id="Assuré">
      <path id="e" class="cls-1" d="M480.28,148.468a10.648,10.648,0,0,0-1.571,8.462,10,10,0,0,0,3.484,5.551,6.883,6.883,0,0,0,6.192,1.6c3.724-.808,4.082-2.217,5.37-3.579a2.676,2.676,0,0,1,3.265-.093,3.118,3.118,0,0,1,1.236,3.084c-.185.912-1.447,2.061-2.242,2.851a12.1,12.1,0,0,1-6.673,3.452,11.951,11.951,0,0,1-10.16-2.816,15.326,15.326,0,0,1-5.539-10.416,17.134,17.134,0,0,1,2.6-11.606,14.256,14.256,0,0,1,5.6-5.157c9.156-4.584,21.8,4.506,14.676,14.266-3.162,4.332-9.546,5.015-13.2,5.015A2.465,2.465,0,0,1,481,157.095c-.014-.054-.026-.109-.039-.164h0a2.672,2.672,0,0,1,2.106-3.365c6.631-.6,10.93-2.531,10.409-5.733-.5-3.053-8.82-6.144-13.194.636Z"/>
      <g id="accent">
        <path id="Tracé_1950" data-name="Tracé 1950" class="cls-2" d="M488.51,130.351a47.26,47.26,0,0,1-6.7,2.777,1.616,1.616,0,0,0,1.524,2.807,30.657,30.657,0,0,0,6.95-2.911A1.6,1.6,0,0,0,488.51,130.351Z"/>
      </g>
      <g id="ssur">
        <path id="Tracé_1951" data-name="Tracé 1951" class="cls-2" d="M385.9,150.567a10.638,10.638,0,0,1,8.389,3.667,8.791,8.791,0,0,1,1.976,8.5,9.092,9.092,0,0,1-3.83,5.256A11.467,11.467,0,0,1,385.807,170h-.061a11.274,11.274,0,0,1-5.835-1.559,9.952,9.952,0,0,1-3.86-4.095,2.518,2.518,0,0,1,.182-2.75,3.065,3.065,0,0,1,2.644-1.315,3.1,3.1,0,0,1,2.918,1.742,4.113,4.113,0,0,0,3.952,2.262h.152a4.487,4.487,0,0,0,3.313-1.345,3.711,3.711,0,0,0-.486-5.685,5.07,5.07,0,0,0-3.01-.978,9.629,9.629,0,0,1-7.568-3.515,7.939,7.939,0,0,1-1.611-7.823,8.474,8.474,0,0,1,3.5-4.615,10.538,10.538,0,0,1,5.927-1.742h.091a9.3,9.3,0,0,1,8.51,4.584,2.476,2.476,0,0,1-.031,2.843,3.014,3.014,0,0,1-2.7,1.406,3.153,3.153,0,0,1-2.8-1.559,3.312,3.312,0,0,0-2.978-1.558h-.061a3.811,3.811,0,0,0-2.219.672,2.931,2.931,0,0,0-1.246,1.8,2.753,2.753,0,0,0,.73,2.628A3.38,3.38,0,0,0,385.9,150.567Z"/>
        <path id="Tracé_1952" data-name="Tracé 1952" class="cls-2" d="M411.247,150.567a10.64,10.64,0,0,1,8.389,3.667,8.791,8.791,0,0,1,1.975,8.5,9.092,9.092,0,0,1-3.83,5.256A11.464,11.464,0,0,1,411.156,170h-.06a11.275,11.275,0,0,1-5.836-1.559,9.964,9.964,0,0,1-3.86-4.095,2.52,2.52,0,0,1,.182-2.75,3.068,3.068,0,0,1,2.645-1.315,3.1,3.1,0,0,1,2.918,1.742,4.112,4.112,0,0,0,3.952,2.262h.152a4.49,4.49,0,0,0,3.313-1.345,3.711,3.711,0,0,0-.487-5.685,5.065,5.065,0,0,0-3.009-.978,9.629,9.629,0,0,1-7.568-3.515,7.939,7.939,0,0,1-1.611-7.823,8.466,8.466,0,0,1,3.5-4.615,10.537,10.537,0,0,1,5.926-1.742h.091a9.3,9.3,0,0,1,8.511,4.584,2.479,2.479,0,0,1-.031,2.843,3.016,3.016,0,0,1-2.705,1.406,3.15,3.15,0,0,1-2.8-1.559A3.314,3.314,0,0,0,411.4,144.3h-.061a3.811,3.811,0,0,0-2.219.672,2.923,2.923,0,0,0-1.246,1.8,2.755,2.755,0,0,0,.729,2.628A3.38,3.38,0,0,0,411.247,150.567Z"/>
        <path id="Tracé_1953" data-name="Tracé 1953" class="cls-2" d="M449.178,138.74a2.719,2.719,0,0,1,2.006.825,2.763,2.763,0,0,1,.852,2.017v25.549a2.8,2.8,0,0,1-.852,2.047,2.719,2.719,0,0,1-2.006.825,2.554,2.554,0,0,1-2.735-2.17,12.274,12.274,0,0,1-7.052,2.17h-.213a12.142,12.142,0,0,1-8.935-3.729,12.277,12.277,0,0,1-3.709-8.984V141.582a2.842,2.842,0,1,1,5.683,0v15.708a6.759,6.759,0,0,0,2.037,4.95,6.686,6.686,0,0,0,4.923,2.048h.213a7.026,7.026,0,0,0,6.96-7V141.582a2.818,2.818,0,0,1,.82-2.017A2.722,2.722,0,0,1,449.178,138.74Z"/>
        <path id="Tracé_1954" data-name="Tracé 1954" class="cls-2" d="M470.18,138.832a2.675,2.675,0,0,1,2.006.855,2.842,2.842,0,0,1-2.006,4.859h-.03a6.64,6.64,0,0,0-4.924,2.078,6.725,6.725,0,0,0-2.036,4.92v15.586a2.854,2.854,0,0,1-.821,2.047,2.788,2.788,0,0,1-2.006.825,2.822,2.822,0,0,1-2.036-.825,2.853,2.853,0,0,1-.821-2.047V141.643a2.863,2.863,0,0,1,2.857-2.873,2.654,2.654,0,0,1,1.764.642,2.874,2.874,0,0,1,1,1.59,12.125,12.125,0,0,1,7.022-2.17Z"/>
      </g>
      <path id="a" class="cls-1" d="M349.838,116.936h0a22.631,22.631,0,0,1,1.628,1.667h0l.01.011h0q.718.813,1.357,1.693h0l.011.015q.65.895,1.216,1.85h0c.053.09.108.179.161.27h0q.55.957,1.014,1.967h0v0h0c.021.043.042.085.061.128h0c.277.614.526,1.241.753,1.88.04.1.08.205.116.31h0c.182.536.337,1.082.483,1.633v0h0v0h0c.037.142.078.281.116.422h0c.153.621.275,1.252.38,1.889h0c.035.212.084.419.114.631.109.778.186,1.565.221,2.362.542,12.172-10.691,22.54-22.417,22.54-12.567,0-21.872-10.328-22.416-22.54a16.512,16.512,0,0,1,.025-1.732h0c.018-.39.051-.774.092-1.159h0c0-.036.01-.073.014-.11h0a19.437,19.437,0,0,1,.532-2.806c.043-.176.08-.354.132-.528h0c.1-.349.228-.688.35-1.031.109-.314.22-.628.347-.937h0c.164-.4.35-.789.539-1.178h0c.071-.146.142-.292.217-.438h0c.211-.411.431-.815.668-1.212h0c.091-.153.188-.3.284-.453h0c.306-.486.626-.962.969-1.424h0q.215-.289.441-.572h0c.269-.34.543-.676.831-1h0c.042-.046.084-.09.126-.135h0q.765-.85,1.609-1.623h0l0,0q.86-.789,1.792-1.49h0q.91-.685,1.878-1.281h0q.982-.6,2.015-1.11l0,0h0a28.126,28.126,0,0,1,2.689-1.295c11.633-4.526,22.353-3.293,39.173,5.105a36.452,36.452,0,0,0-18.038-17.2l.079,0A35.975,35.975,0,0,0,334.9,97a36.529,36.529,0,0,0-34.252,48.542,34.951,34.951,0,0,0,29.982,24.2,35.671,35.671,0,0,0,4.269.222c18.714-.191,21.5-9.422,36.281.038V137.892C371.176,121.938,358.929,116.293,349.838,116.936Z"/>
    </g>
    <g id="monsite">
      <path id="Tracé_1955" data-name="Tracé 1955" class="cls-3" d="M392.449,117.278a6.218,6.218,0,0,1,4.574,1.908,6.284,6.284,0,0,1,1.9,4.6v8.024a1.381,1.381,0,0,1-.435,1.032,1.421,1.421,0,0,1-2.053,0,1.408,1.408,0,0,1-.42-1.032v-8.024a3.464,3.464,0,0,0-1.042-2.534,3.427,3.427,0,0,0-2.52-1.048h-.109a3.423,3.423,0,0,0-2.519,1.048,3.462,3.462,0,0,0-1.043,2.534v8.024a1.434,1.434,0,0,1-.435,1.048,1.457,1.457,0,0,1-2.053,0,1.46,1.46,0,0,1-.42-1.048v-8.024a3.464,3.464,0,0,0-1.042-2.534,3.426,3.426,0,0,0-2.52-1.048H382.2a3.423,3.423,0,0,0-2.519,1.048,3.462,3.462,0,0,0-1.043,2.534v8.024a1.44,1.44,0,0,1-2.519.986,1.582,1.582,0,0,1-.389-1.064v-12.81a1.394,1.394,0,0,1,.529-1.126,1.414,1.414,0,0,1,1.213-.313,1.389,1.389,0,0,1,1.074.939l.093-.063a6.281,6.281,0,0,1,3.562-1.08h.109a6.164,6.164,0,0,1,5.009,2.393h.015l.015-.015c0-.01.011-.021.032-.032a.046.046,0,0,0,.015-.031.014.014,0,0,0,.016-.015l.031-.032a6.181,6.181,0,0,1,4.9-2.268Z"/>
      <path id="Tracé_1956" data-name="Tracé 1956" class="cls-3" d="M407.678,117.278a6.217,6.217,0,0,1,4.574,1.908,6.285,6.285,0,0,1,1.9,4.6v2.987a6.285,6.285,0,0,1-1.9,4.6,6.217,6.217,0,0,1-4.574,1.909h-.108A6.217,6.217,0,0,1,403,131.372a6.285,6.285,0,0,1-1.9-4.6v-2.987a6.285,6.285,0,0,1,1.9-4.6,6.217,6.217,0,0,1,4.574-1.908Zm3.563,6.507a3.6,3.6,0,0,0-3.563-3.582h-.108a3.424,3.424,0,0,0-2.52,1.048,3.464,3.464,0,0,0-1.042,2.534v2.987a3.464,3.464,0,0,0,1.042,2.534,3.424,3.424,0,0,0,2.52,1.048h.108a3.6,3.6,0,0,0,3.563-3.582Z"/>
      <path id="Tracé_1957" data-name="Tracé 1957" class="cls-3" d="M423.22,117.278a6.216,6.216,0,0,1,4.573,1.908,6.285,6.285,0,0,1,1.9,4.6v8.024a1.434,1.434,0,0,1-.435,1.048,1.457,1.457,0,0,1-2.053,0,1.457,1.457,0,0,1-.421-1.048v-8.024a3.594,3.594,0,0,0-3.561-3.582h-.109a3.424,3.424,0,0,0-2.52,1.048,3.465,3.465,0,0,0-1.043,2.534v8.024a1.463,1.463,0,0,1-.419,1.048,1.429,1.429,0,0,1-1.028.423,1.44,1.44,0,0,1-1.462-1.471V118.733a1.438,1.438,0,0,1,1.462-1.455,1.322,1.322,0,0,1,1.4,1.11,6.283,6.283,0,0,1,3.609-1.11Z"/>
      <path id="Tracé_1958" data-name="Tracé 1958" class="cls-3" d="M439.509,123.332a5.448,5.448,0,0,1,4.294,1.877,4.5,4.5,0,0,1,1.01,4.348,4.657,4.657,0,0,1-1.96,2.691,5.878,5.878,0,0,1-3.391,1.032h-.032a5.772,5.772,0,0,1-2.987-.8,5.1,5.1,0,0,1-1.975-2.1,1.289,1.289,0,0,1,.093-1.408,1.568,1.568,0,0,1,1.354-.673,1.589,1.589,0,0,1,1.493.892,2.106,2.106,0,0,0,2.023,1.158h.078a2.3,2.3,0,0,0,1.7-.688,1.892,1.892,0,0,0,.544-1.626,1.911,1.911,0,0,0-.794-1.283,2.589,2.589,0,0,0-1.54-.5,4.93,4.93,0,0,1-3.874-1.8,4.062,4.062,0,0,1-.824-4,4.34,4.34,0,0,1,1.789-2.362,5.39,5.39,0,0,1,3.033-.892h.047a4.759,4.759,0,0,1,4.356,2.346,1.268,1.268,0,0,1-.016,1.455,1.541,1.541,0,0,1-1.384.72,1.612,1.612,0,0,1-1.43-.8,1.7,1.7,0,0,0-1.525-.8h-.031a1.945,1.945,0,0,0-1.136.345,1.5,1.5,0,0,0-.638.922,1.406,1.406,0,0,0,.373,1.345A1.73,1.73,0,0,0,439.509,123.332Z"/>
      <path id="Tracé_1959" data-name="Tracé 1959" class="cls-3" d="M450.445,115.417a1.641,1.641,0,0,1-2.8-1.158,1.6,1.6,0,0,1,.482-1.173,1.628,1.628,0,0,1,2.318,0,1.6,1.6,0,0,1,.482,1.173A1.584,1.584,0,0,1,450.445,115.417Zm-2.193,17.44a1.46,1.46,0,0,1-.42-1.048V118.78a1.408,1.408,0,0,1,.42-1.032,1.443,1.443,0,0,1,1.042-.422,1.426,1.426,0,0,1,1.027.422,1.408,1.408,0,0,1,.42,1.032v13.029a1.46,1.46,0,0,1-.42,1.048,1.427,1.427,0,0,1-1.027.423A1.444,1.444,0,0,1,448.252,132.857Z"/>
      <path id="Tracé_1960" data-name="Tracé 1960" class="cls-3" d="M459.9,130.355a1.393,1.393,0,0,1,1.027.422,1.415,1.415,0,0,1,.435,1.032,1.431,1.431,0,0,1-.435,1.048,1.393,1.393,0,0,1-1.027.423h-.015a6.218,6.218,0,0,1-4.574-1.909,6.284,6.284,0,0,1-1.9-4.6V112.68a1.437,1.437,0,0,1,1.462-1.455,1.428,1.428,0,0,1,1.027.422,1.444,1.444,0,0,1,.42,1.032v4.849h2.349a1.45,1.45,0,0,1,1.027,2.487,1.366,1.366,0,0,1-1.027.438h-2.349v6.319a3.464,3.464,0,0,0,1.042,2.534,3.425,3.425,0,0,0,2.52,1.048Z"/>
      <path id="e-2" data-name="e" class="cls-4" d="M464.276,122.31a5.588,5.588,0,0,0-.75,4.257,5.068,5.068,0,0,0,1.664,2.793,3.173,3.173,0,0,0,2.959.805,3.7,3.7,0,0,0,2.566-1.8,1.23,1.23,0,0,1,1.561-.046,1.6,1.6,0,0,1,.591,1.552,4.008,4.008,0,0,1-1.072,1.435,5.684,5.684,0,0,1-3.189,1.736,5.513,5.513,0,0,1-4.855-1.416,7.836,7.836,0,0,1-2.647-5.241,8.983,8.983,0,0,1,1.243-5.84,6.961,6.961,0,0,1,2.677-2.595c4.376-2.306,10.421,2.267,7.014,7.178-1.512,2.179-4.562,2.523-6.309,2.523a1.2,1.2,0,0,1-1.11-1l-.018-.083h0a1.344,1.344,0,0,1,1.006-1.692c3.169-.3,5.224-1.274,4.975-2.885-.237-1.536-4.215-3.092-6.306.32Z"/>
    </g>
  </g>
</svg>
