<svg id="Calque_1" data-name="Calque 1" xmlns="http://www.w3.org/2000/svg" viewBox="0 0 119.96 85.42"><defs><style>.cls-1,.cls-6{fill:#37718e;}.cls-2,.cls-7{fill:#aa9d71;}.cls-3{fill:#37718d;}.cls-4,.cls-5{fill:#fff;}.cls-4,.cls-6,.cls-7{fill-rule:evenodd;}</style></defs><title>VERT_ENTORIA_BASELINE_RVB</title><path class="cls-1" d="M65.91,100.31V77.83h13V81.2h-8.5v6.07h7.35v3.37H70.44v6.3h8.5v3.37Z" transform="translate(-65.91 -23.1)"/><path class="cls-1" d="M94.63,100.31,87.24,86.42h-.16v13.89H82.71V77.83h4.53L94.31,91h.16V77.83h4.37v22.48Z" transform="translate(-65.91 -23.1)"/><path class="cls-1" d="M107.14,100.31v-19h-5.48V77.83h15.45v3.46h-5.44v19Z" transform="translate(-65.91 -23.1)"/><path class="cls-1" d="M122,99.61a4.4,4.4,0,0,1-2.15-3.17,43,43,0,0,1-.44-7.37,43,43,0,0,1,.44-7.37A4.41,4.41,0,0,1,122,78.53q1.69-1,5.72-1t5.72,1a4.5,4.5,0,0,1,2.16,3.19,41.43,41.43,0,0,1,.46,7.35,41.43,41.43,0,0,1-.46,7.35,4.48,4.48,0,0,1-2.16,3.19q-1.71,1-5.72,1T122,99.61Zm8.38-2.81a2.58,2.58,0,0,0,.93-2,48.5,48.5,0,0,0,.22-5.77,48.5,48.5,0,0,0-.22-5.77,2.6,2.6,0,0,0-.93-2,6,6,0,0,0-2.66-.4,5.91,5.91,0,0,0-2.65.4,2.61,2.61,0,0,0-.91,2,48.24,48.24,0,0,0-.22,5.78,48.24,48.24,0,0,0,.22,5.78,2.59,2.59,0,0,0,.91,2,5.88,5.88,0,0,0,2.65.41A6,6,0,0,0,130.38,96.8Z" transform="translate(-65.91 -23.1)"/><path class="cls-1" d="M151.55,100.31l-2.94-8.2h-3.89v8.2h-4.53V77.83H149a9,9,0,0,1,4.31.82A4.06,4.06,0,0,1,155.26,81a13,13,0,0,1,.5,4,11.79,11.79,0,0,1-.58,4,4,4,0,0,1-2.32,2.35l3.45,9Zm-1.43-11.88a1.56,1.56,0,0,0,.89-1.07,9.46,9.46,0,0,0,.22-2.41,9.09,9.09,0,0,0-.22-2.38,1.56,1.56,0,0,0-.89-1.06,5.57,5.57,0,0,0-2.19-.31h-3.21v7.54h3.21A5.57,5.57,0,0,0,150.12,88.43Z" transform="translate(-65.91 -23.1)"/><path class="cls-1" d="M159.69,100.31V77.83h4.57v22.48Z" transform="translate(-65.91 -23.1)"/><path class="cls-1" d="M181.22,100.31l-1.31-5.1h-7l-1.27,5.1h-4.57l6.12-22.48h6.55l6.12,22.48Zm-4.69-18.79h-.24l-2.54,10.36H179Z" transform="translate(-65.91 -23.1)"/><path class="cls-2" d="M69.1,107.28l-.26-.81H67.27l-.25.81H65.91L67.32,103h1.51l1.4,4.29Zm-1-3.33h0l-.5,1.64h1Z" transform="translate(-65.91 -23.1)"/><path class="cls-2" d="M72.55,107.3c-.25,0-.46,0-.65-.06v-.72c.37,0,.71,0,1,0l.44,0a.3.3,0,0,0,.16-.07.22.22,0,0,0,0-.16.23.23,0,0,0,0-.13.1.1,0,0,0-.08-.06l-.23,0-.76-.09a.63.63,0,0,1-.51-.29,1.43,1.43,0,0,1-.13-.7,1,1,0,0,1,.16-.62.81.81,0,0,1,.45-.28,3.73,3.73,0,0,1,.74-.06l.64,0a4.62,4.62,0,0,1,.53.07v.72a8.25,8.25,0,0,0-.94,0H73a.34.34,0,0,0-.17.06.21.21,0,0,0,0,.15.42.42,0,0,0,0,.13.1.1,0,0,0,.08.06l.2,0,.76.08a1.21,1.21,0,0,1,.39.11.59.59,0,0,1,.22.28,1.65,1.65,0,0,1,.08.57,1.16,1.16,0,0,1-.16.66.77.77,0,0,1-.43.3,3.22,3.22,0,0,1-.7.07Z" transform="translate(-65.91 -23.1)"/><path class="cls-2" d="M77,107.3c-.24,0-.46,0-.64-.06v-.72c.36,0,.7,0,1,0l.43,0a.34.34,0,0,0,.17-.07.3.3,0,0,0,0-.16.39.39,0,0,0,0-.13.12.12,0,0,0-.09-.06,1.26,1.26,0,0,0-.22,0l-.76-.09a.63.63,0,0,1-.52-.29,1.55,1.55,0,0,1-.13-.7,1,1,0,0,1,.17-.62.81.81,0,0,1,.45-.28,3.73,3.73,0,0,1,.74-.06l.64,0a4.41,4.41,0,0,1,.52.07v.72a8.13,8.13,0,0,0-.94,0h-.4a.3.3,0,0,0-.17.06.21.21,0,0,0,0,.15.35.35,0,0,0,0,.13.09.09,0,0,0,.07.06l.21,0,.75.08a1.07,1.07,0,0,1,.39.11.53.53,0,0,1,.22.28,1.65,1.65,0,0,1,.08.57,1.09,1.09,0,0,1-.16.66.72.72,0,0,1-.42.3,3.22,3.22,0,0,1-.7.07Z" transform="translate(-65.91 -23.1)"/><path class="cls-2" d="M82.87,106.9h-.06a1,1,0,0,1-.94.43,1.18,1.18,0,0,1-.63-.14.74.74,0,0,1-.29-.4,3.22,3.22,0,0,1-.07-.7v-2h1v1.67a2.62,2.62,0,0,0,0,.49.22.22,0,0,0,.11.17.76.76,0,0,0,.31,0,.65.65,0,0,0,.32-.06.3.3,0,0,0,.13-.2,2.49,2.49,0,0,0,0-.45V104.1h1v3.18h-1Z" transform="translate(-65.91 -23.1)"/><path class="cls-2" d="M85.93,104.1h1l0,.54H87a.8.8,0,0,1,.37-.46,1.34,1.34,0,0,1,.65-.13V105a1.74,1.74,0,0,0-.64.1.63.63,0,0,0-.31.33,1.77,1.77,0,0,0-.1.68v1.18h-1Z" transform="translate(-65.91 -23.1)"/><path class="cls-2" d="M92.65,105.94h-2a1.24,1.24,0,0,0,0,.41.28.28,0,0,0,.21.16,3.54,3.54,0,0,0,.59,0c.3,0,.63,0,1,0v.71a4.19,4.19,0,0,1-.55.09c-.23,0-.45,0-.68,0a2.91,2.91,0,0,1-1.09-.16.77.77,0,0,1-.43-.49,3.43,3.43,0,0,1-.1-1,3.49,3.49,0,0,1,.1-1,.79.79,0,0,1,.41-.5,2.4,2.4,0,0,1,1-.16,2.19,2.19,0,0,1,1,.16.67.67,0,0,1,.38.47,4.93,4.93,0,0,1,.07,1Zm-1.78-1.12a.27.27,0,0,0-.14.17,2.17,2.17,0,0,0,0,.43h1a2,2,0,0,0,0-.43c0-.09-.07-.15-.13-.17a.85.85,0,0,0-.32,0A.92.92,0,0,0,90.87,104.82Z" transform="translate(-65.91 -23.1)"/><path class="cls-2" d="M94.5,107.28v-.74L96,104.88H94.58v-.78h2.71v.73L95.8,106.5h1.5v.78Z" transform="translate(-65.91 -23.1)"/><path class="cls-2" d="M99.18,105.92v-.83h1.74v.83Z" transform="translate(-65.91 -23.1)"/><path class="cls-2" d="M103.57,107.28l-1-3.18h1.05l.6,2.25h.06l.59-2.25h1l-1,3.18Z" transform="translate(-65.91 -23.1)"/><path class="cls-2" d="M108,107.19a.67.67,0,0,1-.4-.47,4.19,4.19,0,0,1-.09-1,4.33,4.33,0,0,1,.09-1,.64.64,0,0,1,.4-.45,2.74,2.74,0,0,1,1-.14,2.68,2.68,0,0,1,1,.14.68.68,0,0,1,.41.45,5.08,5.08,0,0,1,.08,1,4.92,4.92,0,0,1-.08,1,.71.71,0,0,1-.41.47,2.88,2.88,0,0,1-1,.14A3,3,0,0,1,108,107.19Zm1.42-.7a.22.22,0,0,0,.12-.2,4.4,4.4,0,0,0,0-.6,4.49,4.49,0,0,0,0-.61.22.22,0,0,0-.12-.2,1.39,1.39,0,0,0-.74,0,.27.27,0,0,0-.12.2c0,.11,0,.31,0,.61s0,.49,0,.6a.27.27,0,0,0,.12.2,1.17,1.17,0,0,0,.74,0Z" transform="translate(-65.91 -23.1)"/><path class="cls-2" d="M114.54,106.9h-.06a1,1,0,0,1-.94.43,1.18,1.18,0,0,1-.63-.14.74.74,0,0,1-.29-.4,3.22,3.22,0,0,1-.07-.7v-2h1v1.67a2.62,2.62,0,0,0,0,.49.22.22,0,0,0,.11.17.76.76,0,0,0,.31,0,.65.65,0,0,0,.32-.06.3.3,0,0,0,.13-.2,2.49,2.49,0,0,0,0-.45V104.1h1v3.18h-1Z" transform="translate(-65.91 -23.1)"/><path class="cls-2" d="M118.19,107.3c-.24,0-.46,0-.64-.06v-.72c.37,0,.7,0,1,0l.44,0a.18.18,0,0,0,.19-.23.24.24,0,0,0,0-.13.1.1,0,0,0-.08-.06l-.23,0-.76-.09a.63.63,0,0,1-.52-.29,1.55,1.55,0,0,1-.13-.7,1,1,0,0,1,.17-.62.81.81,0,0,1,.45-.28,3.73,3.73,0,0,1,.74-.06l.64,0a4.13,4.13,0,0,1,.52.07v.72a8.13,8.13,0,0,0-.94,0h-.4a.3.3,0,0,0-.17.06.21.21,0,0,0,0,.15.35.35,0,0,0,0,.13.1.1,0,0,0,.08.06l.2,0,.75.08a1.07,1.07,0,0,1,.39.11.49.49,0,0,1,.22.28,1.44,1.44,0,0,1,.08.57,1.17,1.17,0,0,1-.15.66.77.77,0,0,1-.43.3,3.22,3.22,0,0,1-.7.07Z" transform="translate(-65.91 -23.1)"/><path class="cls-2" d="M125.29,107.18a.83.83,0,0,1-.33-.49,3.65,3.65,0,0,1-.11-1,3.75,3.75,0,0,1,.1-1,.86.86,0,0,1,.34-.5,1.12,1.12,0,0,1,.62-.15,1.73,1.73,0,0,1,.55.08.73.73,0,0,1,.36.3h.05v-1.79h1v4.64h-1l0-.38h-.06a.72.72,0,0,1-.37.34,1.51,1.51,0,0,1-.55.09A1.13,1.13,0,0,1,125.29,107.18Zm1.38-.75a.25.25,0,0,0,.14-.16.86.86,0,0,0,0-.23c0-.09,0-.21,0-.35a2.18,2.18,0,0,0-.05-.56.3.3,0,0,0-.14-.18.78.78,0,0,0-.3,0,.86.86,0,0,0-.34,0,.25.25,0,0,0-.13.2,4.88,4.88,0,0,0,0,1.08.25.25,0,0,0,.13.2.86.86,0,0,0,.34,0A.69.69,0,0,0,126.67,106.43Z" transform="translate(-65.91 -23.1)"/><path class="cls-2" d="M130.21,104.32a.18.18,0,0,0,.12-.12.73.73,0,0,0,0-.25v-.1H130V103h1v.66a2.38,2.38,0,0,1-.07.69.49.49,0,0,1-.3.31,2,2,0,0,1-.71.09v-.38A.94.94,0,0,0,130.21,104.32Z" transform="translate(-65.91 -23.1)"/><path class="cls-2" d="M135.83,105.94h-2a1.24,1.24,0,0,0,.05.41.28.28,0,0,0,.21.16,3.45,3.45,0,0,0,.59,0c.3,0,.62,0,1,0v.71a3.74,3.74,0,0,1-.54.09l-.68,0a2.87,2.87,0,0,1-1.09-.16.79.79,0,0,1-.44-.49,3.93,3.93,0,0,1-.09-1,4,4,0,0,1,.09-1,.83.83,0,0,1,.42-.5,2.4,2.4,0,0,1,1-.16,2.19,2.19,0,0,1,1,.16.69.69,0,0,1,.38.47,4.93,4.93,0,0,1,.07,1Zm-1.78-1.12a.24.24,0,0,0-.14.17,2.17,2.17,0,0,0,0,.43h1a2,2,0,0,0,0-.43c0-.09-.07-.15-.14-.17a.8.8,0,0,0-.31,0A.92.92,0,0,0,134.05,104.82Z" transform="translate(-65.91 -23.1)"/><path class="cls-2" d="M139.75,105.6a2.7,2.7,0,0,0,0-.49c0-.09-.05-.15-.11-.17a.71.71,0,0,0-.3,0,.62.62,0,0,0-.32.06.29.29,0,0,0-.13.2,2.54,2.54,0,0,0,0,.46v1.66h-1V104.1h1l0,.38h.06a1,1,0,0,1,.94-.43,1.11,1.11,0,0,1,.63.14.62.62,0,0,1,.28.4,2.6,2.6,0,0,1,.07.7v2h-1Z" transform="translate(-65.91 -23.1)"/><path class="cls-2" d="M143.17,107.28v-2.4h-.59v-.78h.59v-.93h1v.93h.71v.78h-.71v2.4Z" transform="translate(-65.91 -23.1)"/><path class="cls-2" d="M146.72,104.1h1l0,.54h.06a.76.76,0,0,1,.37-.46,1.34,1.34,0,0,1,.65-.13V105a1.74,1.74,0,0,0-.64.1.64.64,0,0,0-.32.33,2,2,0,0,0-.09.68v1.18h-1Z" transform="translate(-65.91 -23.1)"/><path class="cls-2" d="M153.44,105.94h-1.95a1.24,1.24,0,0,0,0,.41.28.28,0,0,0,.21.16,3.45,3.45,0,0,0,.59,0c.3,0,.62,0,1,0v.71a3.74,3.74,0,0,1-.54.09l-.68,0a2.87,2.87,0,0,1-1.09-.16.79.79,0,0,1-.44-.49,3.93,3.93,0,0,1-.09-1,4,4,0,0,1,.09-1,.83.83,0,0,1,.42-.5,2.4,2.4,0,0,1,1-.16,2.19,2.19,0,0,1,1,.16.69.69,0,0,1,.38.47,4.93,4.93,0,0,1,.07,1Zm-1.78-1.12a.24.24,0,0,0-.14.17,2.17,2.17,0,0,0,0,.43h1a2,2,0,0,0,0-.43c0-.09-.07-.15-.14-.17a.76.76,0,0,0-.31,0A.92.92,0,0,0,151.66,104.82Z" transform="translate(-65.91 -23.1)"/><path class="cls-2" d="M155.41,104.1h1l0,.38h.06a.68.68,0,0,1,.37-.34,1.55,1.55,0,0,1,.55-.09,1.12,1.12,0,0,1,.62.14.86.86,0,0,1,.34.5,3.52,3.52,0,0,1,.11,1,3.68,3.68,0,0,1-.11,1,.82.82,0,0,1-.33.5,1.12,1.12,0,0,1-.62.15,1.73,1.73,0,0,1-.55-.08.66.66,0,0,1-.36-.3h-.05v1.58h-1Zm1.86,2.33a.25.25,0,0,0,.13-.2,3.22,3.22,0,0,0,0-.54,3.28,3.28,0,0,0,0-.55.25.25,0,0,0-.13-.2.86.86,0,0,0-.34,0,.69.69,0,0,0-.29,0,.29.29,0,0,0-.14.15.71.71,0,0,0-.05.23c0,.09,0,.21,0,.37s0,.28,0,.37a.56.56,0,0,0,0,.21.28.28,0,0,0,.14.16.8.8,0,0,0,.3,0A.91.91,0,0,0,157.27,106.43Z" transform="translate(-65.91 -23.1)"/><path class="cls-2" d="M160.41,104.1h1l0,.54h.06a.79.79,0,0,1,.36-.46,1.38,1.38,0,0,1,.66-.13V105a1.74,1.74,0,0,0-.64.1.64.64,0,0,0-.32.33,2,2,0,0,0-.09.68v1.18h-1Z" transform="translate(-65.91 -23.1)"/><path class="cls-2" d="M167.13,105.94h-1.95a1.24,1.24,0,0,0,0,.41.28.28,0,0,0,.21.16,3.4,3.4,0,0,0,.58,0c.31,0,.63,0,1,0v.71a4,4,0,0,1-.54.09l-.68,0a2.87,2.87,0,0,1-1.09-.16.79.79,0,0,1-.44-.49,3.93,3.93,0,0,1-.09-1,4,4,0,0,1,.09-1,.83.83,0,0,1,.42-.5,2.4,2.4,0,0,1,1-.16,2.19,2.19,0,0,1,1,.16.69.69,0,0,1,.38.47,4.93,4.93,0,0,1,.07,1Zm-1.78-1.12a.24.24,0,0,0-.14.17,2.17,2.17,0,0,0,0,.43h1a2,2,0,0,0,0-.43c0-.09-.07-.15-.14-.17a.8.8,0,0,0-.31,0A.88.88,0,0,0,165.35,104.82Z" transform="translate(-65.91 -23.1)"/><path class="cls-2" d="M171.05,105.6a2.7,2.7,0,0,0,0-.49c0-.09-.05-.15-.11-.17a.73.73,0,0,0-.31,0,.6.6,0,0,0-.31.06.29.29,0,0,0-.13.2,2.34,2.34,0,0,0,0,.46v1.66h-1V104.1h1l0,.38h.06a1,1,0,0,1,.94-.43,1.13,1.13,0,0,1,.63.14.66.66,0,0,1,.28.4,2.6,2.6,0,0,1,.07.7v2h-1Z" transform="translate(-65.91 -23.1)"/><path class="cls-2" d="M174.48,107.18a.84.84,0,0,1-.34-.49,4.56,4.56,0,0,1,0-2,.85.85,0,0,1,.33-.5,1.13,1.13,0,0,1,.63-.15,1.71,1.71,0,0,1,.54.08.66.66,0,0,1,.36.3h.05v-1.79h1v4.64h-1l0-.38H176a.72.72,0,0,1-.37.34,1.6,1.6,0,0,1-.56.09A1.12,1.12,0,0,1,174.48,107.18Zm1.38-.75a.28.28,0,0,0,.14-.16.85.85,0,0,0,0-.23c0-.09,0-.21,0-.35a1.79,1.79,0,0,0-.05-.56.26.26,0,0,0-.14-.18.71.71,0,0,0-.3,0,.9.9,0,0,0-.34,0,.27.27,0,0,0-.12.2,3.66,3.66,0,0,0,0,1.08.27.27,0,0,0,.12.2.9.9,0,0,0,.34,0A.78.78,0,0,0,175.86,106.43Z" transform="translate(-65.91 -23.1)"/><path class="cls-2" d="M179.14,104.1h1l0,.54h.06a.79.79,0,0,1,.36-.46,1.34,1.34,0,0,1,.65-.13V105a1.69,1.69,0,0,0-.63.1.61.61,0,0,0-.32.33,2,2,0,0,0-.1.68v1.18h-1Z" transform="translate(-65.91 -23.1)"/><path class="cls-2" d="M185.87,105.94h-2a1.31,1.31,0,0,0,0,.41.32.32,0,0,0,.22.16,3.31,3.31,0,0,0,.58,0c.3,0,.63,0,1,0v.71a4.19,4.19,0,0,1-.55.09l-.67,0a2.83,2.83,0,0,1-1.09-.16.76.76,0,0,1-.44-.49,3.43,3.43,0,0,1-.1-1,3.49,3.49,0,0,1,.1-1,.77.77,0,0,1,.42-.5,2.32,2.32,0,0,1,1-.16,2.27,2.27,0,0,1,1,.16.68.68,0,0,1,.37.47,4.77,4.77,0,0,1,.08,1Zm-1.79-1.12a.23.23,0,0,0-.13.17,2.17,2.17,0,0,0,0,.43h1a1.51,1.51,0,0,0,0-.43.22.22,0,0,0-.13-.17.83.83,0,0,0-.31,0A.94.94,0,0,0,184.08,104.82Z" transform="translate(-65.91 -23.1)"/><path class="cls-3" d="M125.89,79.59" transform="translate(-65.91 -23.1)"/><polygon class="cls-4" points="60.05 1.9 40.61 12.95 40.61 35.12 59.94 45.47 79.42 34.37 79.42 12.19 60.05 1.9"/><path class="cls-5" d="M125.87,70.46l-21-11.25V35.08l21.07-12L147,34.29V58.44ZM108.19,57.22l17.63,9.45L143.67,56.5V36.28L126,26.89,108.19,37Z" transform="translate(-65.91 -23.1)"/><path class="cls-6" d="M125.31,58.56l-9.49-5.11-8.77,5,18.26,9.81V58.56Z" transform="translate(-65.91 -23.1)"/><polygon class="cls-7" points="79.42 13.59 70.38 18.73 70.31 18.84 70.24 18.81 51.39 29.56 59.92 34.13 79.42 23.02 79.42 13.59 79.42 13.59"/><polygon class="cls-6" points="79.42 24.9 60.77 35.53 60.77 44.99 79.42 34.37 79.42 24.9"/><path class="cls-7" d="M126.68,35l9.62,5.17,8.75-5-18.37-9.77-.13,9.52Z" transform="translate(-65.91 -23.1)"/><polygon class="cls-7" points="40.61 22.46 59.34 11.84 59.34 2.29 40.61 12.95 40.61 22.46 40.61 22.46"/><polygon class="cls-6" points="51.17 28.01 68.94 17.88 60.2 13.22 51.17 18.41 51.17 28.01"/><polygon class="cls-6" points="49.79 19.17 40.61 24.38 40.61 33.98 49.79 28.79 49.79 19.17"/></svg>