<svg xmlns="http://www.w3.org/2000/svg" width="289.633" height="249" viewBox="0 0 289.633 249">
  <defs>
    <style>
      .cls-1 {
        fill: #63b8d6;
      }

      .cls-2 {
        fill: #f8f7ff;
      }

      .cls-3 {
        fill: #a4d1bb;
      }

      .cls-4 {
        fill: #9fdaaf;
      }

      .cls-5 {
        fill: #008fbb;
      }

      .cls-6 {
        fill: #9ed3e9;
      }

      .cls-7 {
        fill: #fff;
      }

      .cls-8 {
        fill: #b9ddff;
      }

      .cls-9 {
        fill: #7dbf8c;
      }

      .cls-10 {
        fill: #fac5ca;
      }

      .cls-11 {
        fill: #ff7a00;
      }

      .cls-12 {
        fill: #97c8ef;
      }

      .cls-13 {
        fill: #25228a;
      }

      .cls-14 {
        fill: #ffc359;
      }

      .cls-15 {
        fill: #d4a9ae;
      }

      .cls-16 {
        fill: #3d3dae;
      }

      .cls-17 {
        fill: #ff0021;
      }

      .cls-18 {
        fill: #ffc6ca;
      }

      .cls-19 {
        fill: #004e4a;
      }

      .cls-20 {
        fill: #00848a;
      }

      .cls-21 {
        fill: #0f3872;
      }

      .cls-22 {
        fill: #e5f2fd;
      }

      .cls-23 {
        fill: #ffd4b3;
      }

      .cls-24 {
        fill: #f4e7d8;
      }

      .cls-25 {
        fill: #ff769d;
      }

      .cls-26 {
        fill: #00beed;
      }

      .cls-27 {
        fill: #ebebeb;
      }

      .cls-28 {
        fill: #c4c4c4;
      }

      .cls-29 {
        fill: #0062c7;
      }

      .cls-30 {
        fill: #d9d9d9;
      }

      .cls-31 {
        fill: #2075ff;
      }

      .cls-32 {
        fill: #f6ad2e;
      }

      .cls-33 {
        fill: #0b52ff;
      }
    </style>
  </defs>
  <g id="Groupe_390" data-name="Groupe 390" transform="translate(-26.066 -30.363)">
    <g id="Groupe_379" data-name="Groupe 379" transform="translate(26.066 39.4)">
      <g id="Groupe_378" data-name="Groupe 378">
        <g id="Groupe_377" data-name="Groupe 377">
          <path id="Tracé_2108" data-name="Tracé 2108" class="cls-1" d="M92.252,273c-6-2.725-38.379,11.529-41.649-20.629s-25.072-29.977-24.527-49.6S41.337,165.71,54.419,158.08s-28.678-49.064,4.465-68.408,39.1-2.721,57.923-11.3,28.09-32.021,61.883-29.841,27.878,34.313,27.878,34.313,20.631-36.493,63.145-5.971-7.086,77.4-7.086,77.4l-4.361,29.978s54.5-20.167,57.23,22.892-22.347,73.581-56.685,75.216S92.252,273,92.252,273Z" transform="translate(-26.066 -48.383)"/>
          <ellipse id="Ellipse_110" data-name="Ellipse 110" class="cls-1" cx="5.684" cy="6.52" rx="5.684" ry="6.52" transform="translate(276.722 115.642)"/>
          <ellipse id="Ellipse_111" data-name="Ellipse 111" class="cls-1" cx="13.714" cy="11.569" rx="13.714" ry="11.569" transform="translate(62.871 10.798) rotate(-23.016)"/>
          <ellipse id="Ellipse_112" data-name="Ellipse 112" class="cls-2" cx="113.542" cy="19.947" rx="113.542" ry="19.947" transform="translate(45.65 200.069)"/>
        </g>
      </g>
    </g>
    <path id="Tracé_2109" data-name="Tracé 2109" class="cls-3" d="M243.064,157.828l-2.234-.372s-.773-17.194-2.585-22.4c0,0-24.768-.59-28.424-18.852,0,0,19.143-5.838,28.5,16.119a193.427,193.427,0,0,0-4.906-32.594s-18.667,2.975-21.12-13.322c0,0,11.381-5.168,19.816,5.063,0,0-2.466-12.768-5.391-19.335,0,0-14.1,1.969-18.083-12.032,0,0,10.341-1.222,16.738,6.316l-4.822-13.552s-11.3-9.137-7.924-22.5c0,0,12.8,5.856,9.512,21l4.632,14.7S229.058,52.32,238.991,52.4c0,0,.061,16.879-10.285,19.277,0,0,4.636,13.522,5.872,23.339,0,0-.274-17.9,14.666-20.314,0,0,4.169,14.032-13.249,23.3a259.156,259.156,0,0,1,4.189,33.455s-3.161-17.788,14.256-27.051c0,0,9.285,15.472-13.062,31.369A122.63,122.63,0,0,1,243.064,157.828Z" transform="translate(-91.006 0)"/>
    <path id="Tracé_2110" data-name="Tracé 2110" class="cls-4" d="M388.682,102.021l-1.075-.629s2.979-8.992,3.07-12.024c0,0-12.618-5.168-10.912-15.275,0,0,10.989.758,11.486,13.883a106.437,106.437,0,0,0,3.878-17.721s-10.181-2.136-8.242-11a9.368,9.368,0,0,1,9.194,6.494s1.24-7.049,1.026-11c0,0-7.636-1.756-6.934-9.737,0,0,5.556,1.4,7.365,6.534l.182-7.915s-4.013-6.916.346-13.125a10.109,10.109,0,0,1,.766,12.666l-.505,8.466s3.875-6.617,8.965-4.623c0,0-3.284,8.69-9.074,7.891a80.561,80.561,0,0,1-1.564,13.153s3.374-9.255,11.53-7.564c0,0-.612,8.033-11.387,9.376A142.649,142.649,0,0,1,392.381,87.9a14.53,14.53,0,0,1,12.642-11.108s1.735,9.778-12.876,13.563A67.455,67.455,0,0,1,388.682,102.021Z" transform="translate(-176.231 -0.073)"/>
    <path id="Tracé_2111" data-name="Tracé 2111" class="cls-3" d="M416.117,272.571l2.485-.213s2.387-18.351,4.841-23.776c0,0,27.236,1.415,32.883-17.841,0,0-20.487-7.835-32.717,14.907a203.968,203.968,0,0,1,8.3-34.5s20.221,4.729,24.371-12.522c0,0-12.028-6.476-22.2,3.784,0,0,3.849-13.471,7.646-20.263,0,0,15.3,3.274,20.922-11.391,0,0-11.24-2.164-18.936,5.38l6.505-14.116s13.214-8.852,10.71-23.446c0,0-14.57,5.214-12.319,21.707l-6.4,15.358S440.927,160.73,430.018,160c0,0-1.576,18.073,9.564,21.5,0,0-6.3,14.1-8.532,24.51,0,0,1.9-19.144-14.278-22.968,0,0-5.83,14.684,12.457,26.045a273.275,273.275,0,0,0-7.59,35.484s5.061-18.789-13.226-30.15c0,0-11.575,15.8,11.53,34.676A129.021,129.021,0,0,0,416.117,272.571Z" transform="translate(-189.144 -53.94)"/>
    <path id="Tracé_2112" data-name="Tracé 2112" class="cls-2" d="M163.078,317.707l1.789-1.389s-7.234-15.169-8.039-20.516c0,0,21.463-12.359,16.267-29.826,0,0-19.486,4.135-17.59,27.507a185.257,185.257,0,0,1-10.695-30.4s17.75-6.371,12.4-21.571c0,0-12.365,1-15.06,13.838,0,0-3.711-12.169-4.168-19.22,0,0,13.279-5.051,10.331-19.007,0,0-9.637,3.9-11.782,13.444L134.53,216.6s5.707-13.269-3.4-23.159c0,0-8.535,11.164,1.318,22.627l2.7,14.866s-8.331-10.734-17.009-5.91c0,0,7.715,14.557,17.9,11.671,0,0,2.155,13.856,5.588,22.9,0,0-8-15.534-22.219-10.467,0,0,2.8,14.072,22.347,13.711a248.2,248.2,0,0,0,11.72,30.8,25.336,25.336,0,0,0-24.959-16.461s-1.028,17.759,25.9,20.749A117.157,117.157,0,0,0,163.078,317.707Z" transform="translate(-45.894 -81.288)"/>
    <path id="Tracé_2113" data-name="Tracé 2113" class="cls-1" d="M58.687,235.679c0,4.911-3.365,8.892-5.974,8.892s-6.947-3.425-6.947-8.336,4.338-9.448,6.947-9.448S58.687,230.768,58.687,235.679Z" transform="translate(-9.82 -97.912)"/>
    <ellipse id="Ellipse_113" data-name="Ellipse 113" class="cls-1" cx="6.669" cy="8.892" rx="6.669" ry="8.892" transform="translate(28.036 225.75) rotate(-17.387)"/>
    <g id="Groupe_381" data-name="Groupe 381" transform="translate(115.197 87.574)">
      <path id="Tracé_2179" data-name="Tracé 2179" class="cls-5" d="M0,0H129.407V21.059H0Z"/>
      <rect id="Rectangle_544" data-name="Rectangle 544" class="cls-6" width="129.407" height="4.542" transform="translate(0 21.059)"/>
      <g id="Groupe_380" data-name="Groupe 380" transform="translate(0 25.601)">
        <path id="Tracé_2114" data-name="Tracé 2114" class="cls-7" d="M333.193,195.482H203.786v140.15h92.845l36.561-31.382Z" transform="translate(-203.786 -195.482)"/>
        <path id="Tracé_2115" data-name="Tracé 2115" class="cls-8" d="M388.912,443.739l36.561-31.382H388.912Z" transform="translate(-296.067 -303.588)"/>
      </g>
    </g>
    <path id="Tracé_2116" data-name="Tracé 2116" class="cls-2" d="M517.513,390.459h1.677s2.656-12.16,4.613-15.654c0,0,18.17,2.516,23.062-10.064,0,0-13.278-6.429-22.782,8.107a137.214,137.214,0,0,1,7.547-22.642s13.278,4.333,17.052-6.988c0,0-7.687-5.032-15.095,1.258,0,0,3.354-8.805,6.29-13.138,0,0,10.063,3.075,14.676-6.43,0,0-7.408-2.1-13,2.516l5.171-9.085s9.365-5.171,8.526-15.095c0,0-10.063,2.656-9.5,13.837L540.575,327s0-10.064-7.268-11.182c0,0-2.1,12.02,5.171,14.955,0,0-5.032,9.085-7.128,15.933,0,0,2.376-12.719-8.246-16.213,0,0-4.753,9.5,6.848,18.17a183.779,183.779,0,0,0-7.128,23.341,18.765,18.765,0,0,0-7.128-20.965s-8.665,9.924,5.73,23.9A86.781,86.781,0,0,0,517.513,390.459Z" transform="translate(-242.779 -136.024)"/>
    <g id="Groupe_382" data-name="Groupe 382" transform="translate(81.496 206.035)">
      <path id="Tracé_2117" data-name="Tracé 2117" class="cls-9" d="M184.57,418.11c-.067.367-.115.7-.149,1l.132-.026.384.373a3.968,3.968,0,0,1-.34-1.149Z" transform="translate(-160.431 -399.317)"/>
      <path id="Tracé_2118" data-name="Tracé 2118" class="cls-10" d="M165.387,458.927l.17-1.276q.006-.292.012-.589a4.776,4.776,0,0,1-1.224-3.175,8.423,8.423,0,0,1,.124-1.912l-4.933-1.489a11.459,11.459,0,0,0,1.745,7.315C162.614,458.107,163.991,458.489,165.387,458.927Z" transform="translate(-148.006 -415.455)"/>
      <path id="Tracé_2119" data-name="Tracé 2119" class="cls-10" d="M227.727,438.843c.167.376.324.731.466,1.054-.146-.713-.277-1.127-.277-1.127Z" transform="translate(-182.018 -409.615)"/>
      <path id="Tracé_2120" data-name="Tracé 2120" class="cls-10" d="M218.219,448.962a15.7,15.7,0,0,1-.457,2.686v6.693l1.356-.516c4.463-4.2,4.746-9.722,4.395-13.079l-5.352.694A18.132,18.132,0,0,1,218.219,448.962Z" transform="translate(-177.051 -412.594)"/>
      <path id="Tracé_2121" data-name="Tracé 2121" class="cls-11" d="M176.769,445.368h3.214a1.023,1.023,0,0,1-.587-.481,9.362,9.362,0,0,0-1.532-1.923c-.5-1.452-1.4-3.755-1.4-3.755l.182,2.48-.245.439.06.53Z" transform="translate(-156.434 -409.834)"/>
      <path id="Tracé_2122" data-name="Tracé 2122" class="cls-11" d="M200.763,443.871l-.072-3.7,1.092.559a.09.09,0,0,0,.114-.132c-.556-.777-1.154-2.271-1.493-2.827a5.149,5.149,0,0,1-.474-1.212c-.012-.039-.072-.195-.127-.35-.074.168-.131.327-.1.242a2.575,2.575,0,0,0-.11.8c-.038.622-.021,1.247,0,1.869a15.046,15.046,0,0,1-.121,3.864,1.124,1.124,0,0,1-1.855.49,28.3,28.3,0,0,1-3.084-2.221,27.826,27.826,0,0,1-3.827,1.766,1.122,1.122,0,0,1-1.365-.775c-.072-.2-.132-.4-.185-.6a3.293,3.293,0,0,1-2.987.555,11.18,11.18,0,0,1-.572,1.2,1.04,1.04,0,0,1-.6.481Z" transform="translate(-160.722 -408.337)"/>
      <path id="Tracé_2123" data-name="Tracé 2123" class="cls-12" d="M171.571,454.882q-.006.3-.012.589c-.009.457-.018.9-.027,1.322a114.94,114.94,0,0,1,14.272,5.8c1.93-.892,3.941-1.743,5.92-2.456.982-.355,1.985-.733,2.994-1.117v-12.91H171.6l.077,3.572c-.014.662-.034,1.638-.056,2.729C171.6,453.2,171.587,454.052,171.571,454.882Z" transform="translate(-154.007 -413.275)"/>
      <path id="Tracé_2124" data-name="Tracé 2124" class="cls-10" d="M215.742,494.262l6.88.213-.291-2.4.36-.09,0-.128-4.254-.761c-.668.143-1.377.293-2.117.448Z" transform="translate(-176.044 -435.7)"/>
      <path id="Tracé_2125" data-name="Tracé 2125" class="cls-10" d="M165.877,492.819l.249,2.053-.3.076,5.046.293-.352-2.716Z" transform="translate(-151.16 -436.411)"/>
      <path id="Tracé_2126" data-name="Tracé 2126" class="cls-5" d="M148.363,475.537q.546.187,1.1.384a60,60,0,0,0,6.772,1.843,127.448,127.448,0,0,1,12.147-6.5,114.935,114.935,0,0,0-14.272-5.8l-.143-.045c-1.4-.438-2.774-.82-4.1-1.126a29.322,29.322,0,0,0-5.319-.778,10.542,10.542,0,0,0-4.975.8,4.934,4.934,0,0,0-2.161,1.954c-1.628,2.774-.721,4.435,1.7,5.8.3.168.62.332.963.493C142.182,473.541,145.1,474.417,148.363,475.537Z" transform="translate(-136.588 -421.939)"/>
      <path id="Tracé_2127" data-name="Tracé 2127" class="cls-5" d="M197.7,492.431c5.049.76,13.511,2.112,13.511,2.112l1.357-5.608-5.237,1.534C204.367,491.09,200.915,491.789,197.7,492.431Z" transform="translate(-167.051 -434.621)"/>
      <path id="Tracé_2128" data-name="Tracé 2128" class="cls-1" d="M209.555,464.9a11.155,11.155,0,0,0-5.985.149c-.726.17-1.475.377-2.242.611-1.855.568-3.811,1.294-5.767,2.037l-1.356.516c-1.009.384-2.011.762-2.994,1.117-1.979.714-3.989,1.565-5.92,2.456-5.8,2.68-13.469,4.674-14.743,5.454a57.074,57.074,0,0,0,.343,5.947l2.453-.784s5.013-.972,10.8-2.128c3.214-.642,6.666-1.341,9.63-1.962.74-.155,1.449-.3,2.117-.448,2.775-.595,4.827-1.069,5.344-1.272.4-.157,1.115-.437,2-.81a31.3,31.3,0,0,0,7.681-4.326,7.485,7.485,0,0,0,.866-.886,2.562,2.562,0,0,0,.712-2.257,6.755,6.755,0,0,0-.21-.662,4.761,4.761,0,0,0-1.107-1.762,4.08,4.08,0,0,0-.571-.467,4.444,4.444,0,0,0-.913-.472C209.646,464.937,209.6,464.92,209.555,464.9Z" transform="translate(-153.495 -422.47)"/>
      <path id="Tracé_2129" data-name="Tracé 2129" class="cls-13" d="M229.172,493.735s3.486.8,5.883,1.234,5.883.145,6.391-1.816-2.033-3.123-2.978-3.486-7.844,1.235-7.844,1.235l-1.384.346-.36.09Z" transform="translate(-182.594 -434.96)"/>
      <path id="Tracé_2130" data-name="Tracé 2130" class="cls-13" d="M153.625,491.368l-.042-.343s-3.487-.8-5.883-1.235a10.851,10.851,0,0,0-3.666-.038c-.205.037-.4.082-.6.135a2.7,2.7,0,0,0-2.128,1.718c-.509,1.961,2.034,3.123,2.978,3.486s7.844-1.235,7.844-1.235l1.439-.36.3-.076Z" transform="translate(-138.908 -434.96)"/>
      <path id="Tracé_2131" data-name="Tracé 2131" class="cls-14" d="M158.725,434.188l4.933,1.489.979.3.227-.406.488-.875,1.6-2.861.212-.38.245-.439-.182-2.48s.9,2.3,1.4,3.755a9.362,9.362,0,0,1,1.532,1.923,1.023,1.023,0,0,0,.587.481h.734a1.04,1.04,0,0,0,.6-.481,11.18,11.18,0,0,0,.572-1.2,3.293,3.293,0,0,0,2.987-.555c.052.2.112.4.185.6a1.122,1.122,0,0,0,1.365.775,27.826,27.826,0,0,0,3.827-1.766,28.3,28.3,0,0,0,3.084,2.221,1.124,1.124,0,0,0,1.855-.49,15.045,15.045,0,0,0,.121-3.864c-.018-.622-.035-1.247,0-1.869a2.575,2.575,0,0,1,.11-.8c-.036.086.022-.074.1-.242.055.155.115.31.127.35a5.151,5.151,0,0,0,.474,1.212c.339.556.937,2.05,1.493,2.827a.09.09,0,0,1-.114.132l-1.092-.559.072,3.7h.043l0-.382-.018-2.171L188.3,432l5.352-.694.5-.065s-.3-.689-.749-1.715l-.04-.09c-.142-.323-.3-.679-.466-1.054-.625-1.407-1.393-3.107-2.082-4.558-.37-.78-.718-1.489-1.008-2.04-1.385-2.63-9.776-3.885-10.56-4l-.029.264a3.952,3.952,0,0,1-1.453,2.649,2.46,2.46,0,0,1-.341.262,1.969,1.969,0,0,1-.225.12,3.953,3.953,0,0,1-1.919.5h0A3.963,3.963,0,0,1,171.7,419.3l-.384-.373-.132.026-.27.054c-1.372.278-5.849,1.244-6.976,2.213-.114.1-.226.2-.337.307-3.047,2.931-4.861,8.973-5.487,11.379-.167.638-.249,1.021-.249,1.021Z" transform="translate(-147.193 -399.157)"/>
      <path id="Tracé_2132" data-name="Tracé 2132" class="cls-10" d="M201.572,407.682v.267l.03-.269Z" transform="translate(-168.981 -394.118)"/>
      <path id="Tracé_2133" data-name="Tracé 2133" class="cls-10" d="M187.857,405.064a2.476,2.476,0,0,1-1.161.306,2.372,2.372,0,0,1-1.306-.377,3.157,3.157,0,0,1-2.721-2.942v-3.42c.493.152.455.759.455.759,0,1.746.645,1.67.645,1.67a1.03,1.03,0,0,0,.873-1.025,1.216,1.216,0,0,1,.835-1.138h3.036c1.138,0,1.062,2.012,1.631,2.012s.684-.911.684-1.518a.85.85,0,0,1,.531-.8v.456a2.206,2.206,0,0,0,.282-.161c.877-.578,1.017-2.958.588-3.116s-.392.466-.438,1.437c-.023.477-.245.668-.464.738v-4.513a4.119,4.119,0,0,1-.757-1.01l-.022-.043c-.027-.052-.055-.1-.08-.158s-.058-.125-.085-.189l-.014-.03a4.621,4.621,0,0,1-.259-.838c-.007-.035-.015-.069-.022-.1a13.2,13.2,0,0,1-3.017.336,12.78,12.78,0,0,1-3.511-.465c0,.031-.011.063-.016.094a4.534,4.534,0,0,1-.219.83c-.025.067-.049.134-.077.2l-.005.012c-.032.074-.064.146-.1.217s-.06.119-.091.177l-.019.035a4.053,4.053,0,0,1-.814,1.052v4.394c-.22-.07-.441-.26-.464-.738-.047-.97-.01-1.6-.438-1.437s-.289,2.538.588,3.116a2.145,2.145,0,0,0,.314.176v.272h0l-.027,0,.712,5.229.027.2a3.965,3.965,0,0,0,3.926,3.428h0a3.965,3.965,0,0,0,3.938-3.527l.029-.264.091-.825A4.068,4.068,0,0,1,187.857,405.064Z" transform="translate(-158.769 -385.771)"/>
      <path id="Tracé_2134" data-name="Tracé 2134" class="cls-10" d="M204.84,393.11c0-.019,0-.039,0-.058,0,.02,0,.039,0,.058Z" transform="translate(-170.61 -386.826)"/>
      <path id="Tracé_2135" data-name="Tracé 2135" class="cls-15" d="M192.135,419.037a9.911,9.911,0,0,1-1.127.062,6.323,6.323,0,0,1-1.34-.132,2.372,2.372,0,0,0,1.306.377A2.475,2.475,0,0,0,192.135,419.037Z" transform="translate(-163.047 -399.744)"/>
      <path id="Tracé_2136" data-name="Tracé 2136" class="cls-10" d="M204.84,393.394q0,.094,0,.193Q204.84,393.488,204.84,393.394Z" transform="translate(-170.608 -386.997)"/>
      <path id="Tracé_2137" data-name="Tracé 2137" class="cls-10" d="M204.827,393.9c0,.049,0,.1-.007.148C204.823,393.994,204.825,393.945,204.827,393.9Z" transform="translate(-170.6 -387.247)"/>
      <path id="Tracé_2138" data-name="Tracé 2138" class="cls-10" d="M180.019,393.591c0-.067,0-.133,0-.2C180.015,393.458,180.017,393.523,180.019,393.591Z" transform="translate(-158.235 -386.997)"/>
      <path id="Tracé_2139" data-name="Tracé 2139" class="cls-10" d="M180.033,394.059c0-.054-.005-.106-.007-.157C180.027,393.953,180.03,394.005,180.033,394.059Z" transform="translate(-158.241 -387.25)"/>
      <path id="Tracé_2140" data-name="Tracé 2140" class="cls-16" d="M181.662,394.2l.027,0h0v-.272a2.148,2.148,0,0,1-.314-.176c-.877-.578-1.017-2.958-.588-3.117s.392.466.438,1.437c.023.477.244.668.464.738V388.42a4.053,4.053,0,0,0,.814-1.052l.019-.035c.031-.058.062-.116.091-.177s.067-.143.1-.217l.005-.012c.028-.067.052-.134.077-.2a4.534,4.534,0,0,0,.219-.83c.005-.032.012-.063.016-.094a12.778,12.778,0,0,0,3.511.465,13.2,13.2,0,0,0,3.017-.336c.007.034.015.068.022.1a4.622,4.622,0,0,0,.259.838l.014.03c.027.064.056.127.085.189s.053.106.08.158l.022.043a4.12,4.12,0,0,0,.757,1.01v4.513c.219-.07.441-.26.464-.738.047-.97.009-1.6.438-1.437s.289,2.538-.588,3.117a2.205,2.205,0,0,1-.282.161v-.456a.85.85,0,0,0-.531.8c0,.607-.114,1.518-.684,1.518s-.493-2.012-1.631-2.012h-3.036a1.216,1.216,0,0,0-.835,1.138,1.03,1.03,0,0,1-.873,1.025s-.645.076-.645-1.67c0,0,.038-.607-.455-.759v3.42a3.157,3.157,0,0,0,2.721,2.942,6.321,6.321,0,0,0,1.34.132,9.911,9.911,0,0,0,1.127-.062,4.068,4.068,0,0,0,3.063-1.485,2.331,2.331,0,0,0,.44-1.3V394.2l.03,0a1.492,1.492,0,0,0,1-.457c.025-.025.049-.05.072-.076s.024-.029.035-.043c.031-.039.061-.078.089-.119a1.948,1.948,0,0,0,.333-1.147l.016-1.084v-.007l.026-1.785.029-2.012,0-.034c0-.05.005-.1.007-.148,0-.02,0-.04,0-.059q0-.1,0-.193h0v-.006c0-.037,0-.072,0-.108h0c0-.019,0-.039,0-.058,0-.038,0-.075,0-.113l0-.2,0,0h0a6.206,6.206,0,0,0-2.737-4.849c-.11-.075-.224-.144-.339-.212l-.008,0c-.055-.033-.11-.065-.166-.1-.025-.014-.05-.025-.075-.038l-.031-.016c-.075-.039-.15-.076-.227-.112l-.053-.024c-.053-.025-.105-.05-.159-.072l-.053-.021-.076-.03c-.051-.021-.1-.042-.154-.061l-.044-.015-.1-.033c-.061-.021-.122-.042-.185-.06l-.117-.034c-.048-.014-.095-.028-.143-.041l-.028-.006-.138-.032c-.052-.012-.1-.025-.156-.035s-.106-.019-.159-.028-.094-.018-.141-.025-.124-.016-.187-.024c-.04-.005-.079-.011-.119-.015-.075-.008-.151-.012-.227-.017l-.084-.007c-.105-.005-.211-.008-.317-.008s-.212,0-.316.008l-.083.007c-.076,0-.152.01-.228.017l-.119.015c-.062.008-.125.014-.187.024s-.094.016-.141.025-.107.018-.159.028-.1.023-.156.035l-.138.032-.028.006c-.048.013-.1.027-.143.041l-.117.034-.09.029-.094.032-.1.033c-.067.024-.132.05-.2.076l-.075.03c-.072.03-.142.061-.212.093l-.054.025c-.076.036-.151.073-.226.112l-.031.016q-.123.064-.241.134l-.008,0a6.206,6.206,0,0,0-3.076,5.061l-.008,0h0l0,.2c0,.038,0,.075,0,.113,0,.01,0,.02,0,.029v.029c0,.019,0,.038,0,.057s0,.037,0,.056c0,.064,0,.129,0,.2,0,.019,0,.039,0,.058,0,.051,0,.1.007.157v.017l.033,2.313.037,2.58A1.714,1.714,0,0,0,181.662,394.2Z" transform="translate(-158.235 -380.638)"/>
    </g>
    <g id="Groupe_384" data-name="Groupe 384" transform="translate(121.935 111.556)">
      <circle id="Ellipse_114" data-name="Ellipse 114" class="cls-17" cx="42.834" cy="42.834" r="42.834" transform="translate(0 60.577) rotate(-45)"/>
      <g id="Groupe_383" data-name="Groupe 383" transform="translate(36.243 34.394)">
        <rect id="Rectangle_545" data-name="Rectangle 545" class="cls-7" width="15.174" height="59.272" transform="translate(0 10.729) rotate(-45)"/>
        <rect id="Rectangle_546" data-name="Rectangle 546" class="cls-7" width="15.174" height="59.272" transform="translate(41.912 0) rotate(45)"/>
      </g>
    </g>
    <g id="Groupe_388" data-name="Groupe 388" transform="translate(192.214 143.617)">
      <g id="Groupe_387" data-name="Groupe 387">
        <g id="Groupe_385" data-name="Groupe 385" transform="translate(34.786 17.172)">
          <path id="Tracé_2141" data-name="Tracé 2141" class="cls-18" d="M444.794,320.365s-.038-.021-.063-.035l-.09-.054-.193-.12c-.13-.081-.264-.173-.4-.261-.266-.183-.532-.372-.795-.569-.528-.393-1.044-.813-1.547-1.249a33.929,33.929,0,0,1-2.87-2.8,39.5,39.5,0,0,1-4.757-6.452,43.463,43.463,0,0,1-3.409-7.253,49.725,49.725,0,0,1-2.117-7.753v0a.913.913,0,0,0-1.075-.683.887.887,0,0,0-.766.935,51.256,51.256,0,0,0,1.535,8.183,45.449,45.449,0,0,0,2.97,7.9,42,42,0,0,0,4.561,7.319A36.969,36.969,0,0,0,438.7,320.8c.526.53,1.071,1.048,1.647,1.549q.431.377.888.743c.156.122.308.243.472.365l.25.184.133.094.164.11a2.4,2.4,0,0,0,3.14-.594A1.969,1.969,0,0,0,444.794,320.365Z" transform="translate(-426.713 -291.767)"/>
          <path id="Tracé_2142" data-name="Tracé 2142" class="cls-18" d="M465.194,499.775l-1,3.908-2.055-.326.624-4.349Z" transform="translate(-444.373 -394.396)"/>
          <path id="Tracé_2143" data-name="Tracé 2143" class="cls-19" d="M464.43,447.958l-4.887-.4s-1.351-31.067-.733-36.866.02-17.187.02-17.187l5.487,3.477,2.768,18.961,1.306,2.914s-2.433,5.446-2.476,9.243S468.063,438.257,464.43,447.958Z" transform="translate(-442.632 -341.805)"/>
          <path id="Tracé_2144" data-name="Tracé 2144" class="cls-19" d="M460.67,506.679l-3.892.533s-4.034,2.082-3.39,3.46,7.431-.621,7.431-.621S461.105,506.951,460.67,506.679Z" transform="translate(-439.975 -398.219)"/>
          <path id="Tracé_2145" data-name="Tracé 2145" class="cls-18" d="M515.129,439.176l2.862-2.809,1.554,1.836-3.369,2.727Z" transform="translate(-470.786 -363.171)"/>
          <path id="Tracé_2146" data-name="Tracé 2146" class="cls-18" d="M458.235,308.333s-1.534,3.434-1.6,3.659c-.425,1.534-1.794,7.59,2.839,8.254l-1.018,4.8-2.026,2.671a26.6,26.6,0,0,0,6.844-1.74l3.377-12.052-2.817-3.06-3.912-2.2Z" transform="translate(-441.371 -299.349)"/>
          <path id="Tracé_2147" data-name="Tracé 2147" class="cls-14" d="M458.151,341.926l-3.5.407s-5.077,7.689-4.41,9.952,3.925,11.565,3.959,14.627l10.128-1.015s.962-14.635.738-18.642-2.019-5.574-2.019-5.574Z" transform="translate(-438.409 -315.972)"/>
          <path id="Tracé_2148" data-name="Tracé 2148" class="cls-20" d="M458.191,390.981s6.363,33.11,13.963,38.387c8.88,6.167,19.485-10.606,19.485-10.606l-6.413-5.18s-7.98,13.54-10.606,6.906.419-19.2-1.271-22.636a62.744,62.744,0,0,0-5.031-7.886Z" transform="translate(-442.404 -340.041)"/>
          <path id="Tracé_2149" data-name="Tracé 2149" class="cls-19" d="M518.828,433.747l2.7,2.857s4.039,2.072,4.786.748-4.825-5.686-4.825-5.686S518.8,433.235,518.828,433.747Z" transform="translate(-472.63 -360.827)"/>
          <path id="Tracé_2150" data-name="Tracé 2150" class="cls-20" d="M456.637,303.171s-1.745,3.158,3.552,3.552,4.2,2.064,4.2,2.064-6.868,8.418.958,11.081c4.431,1.508,10.794-4.953,8.014-11.2s.1-5.434-5.5-6.531S462.255,298.616,456.637,303.171Z" transform="translate(-441.492 -295.447)"/>
          <path id="Tracé_2151" data-name="Tracé 2151" class="cls-20" d="M474.933,300.09c0-.344-2.75-7.333,2.521-6.073s11.917,5.729,8.365,7.907-6.531,2.521-7.677,1.719A23.354,23.354,0,0,1,474.933,300.09Z" transform="translate(-450.392 -292.137)"/>
          <path id="Tracé_2152" data-name="Tracé 2152" class="cls-18" d="M474.444,321.317a.516.516,0,0,1-.013-.07l-.016-.1-.029-.225c-.02-.151-.034-.313-.05-.471-.028-.322-.05-.647-.065-.975-.031-.657-.034-1.323-.017-1.989a34.005,34.005,0,0,1,.34-3.993,39.5,39.5,0,0,1,1.965-7.772A43.488,43.488,0,0,1,480,298.479a49.734,49.734,0,0,1,4.647-6.557v0a.912.912,0,0,0-.154-1.264.887.887,0,0,0-1.209,0,51.332,51.332,0,0,0-5.349,6.381,45.448,45.448,0,0,0-4.221,7.311,41.994,41.994,0,0,0-2.76,8.17,36.97,36.97,0,0,0-.711,4.365c-.076.743-.13,1.493-.151,2.256-.012.382-.015.767-.01,1.158.005.2.008.392.018.6l.017.309.012.163.019.2a2.4,2.4,0,0,0,2.452,2.048A1.969,1.969,0,0,0,474.444,321.317Z" transform="translate(-448.331 -290.42)"/>
        </g>
        <g id="Groupe_386" data-name="Groupe 386">
          <path id="Tracé_2153" data-name="Tracé 2153" class="cls-5" d="M546.372,278.033l-7.885-1.127-.5,3.53,6.445.92,1.441.206,1.441.206C547.31,279.6,546.979,278.119,546.372,278.033Z" transform="translate(-447.391 -266.512)"/>
          <path id="Tracé_2154" data-name="Tracé 2154" class="cls-21" d="M544.494,301.476l-1.441-.206-1.442-.206-6.444-.921-.5,3.529,7.885,1.126C543.155,304.885,543.889,303.553,544.494,301.476Z" transform="translate(-445.737 -278.095)"/>
          <path id="Tracé_2155" data-name="Tracé 2155" class="cls-22" d="M366.594,261.072c-.095.562-1.974.452-2.364.984l11.924-1.067,2.371-.213,1.281-.114a4.467,4.467,0,0,0-1.131-.939c-.717-.489-1.464-1.017-1.445-1.747a1.7,1.7,0,0,1,.408-.966l-.954.266-10.765,3.009C366.337,260.536,366.634,260.832,366.594,261.072Z" transform="translate(-360.78 -256.594)"/>
          <path id="Tracé_2156" data-name="Tracé 2156" class="cls-23" d="M375.128,275.191c.208-.686,1.237-.9,2.2-1.109a3.523,3.523,0,0,0,1.612-.6l-1.444-.565-2.217-.868-11.161-4.368c.174.682,2.1,1.433,1.948,2.023-.042.16-.23.276-.489.355l9.171,5.7.452.281A1.375,1.375,0,0,1,375.128,275.191Z" transform="translate(-360.724 -261.911)"/>
          <path id="Tracé_2157" data-name="Tracé 2157" class="cls-24" d="M377.687,269.782A7.762,7.762,0,0,1,375.6,268a.875.875,0,0,1-.13-.585.854.854,0,0,1,.283-.482,7.657,7.657,0,0,1,2.488-1.034c.85-.277,1.579-.587,1.636-1.12a.716.716,0,0,0-.142-.487l-1.281.114-2.371.213-11.924,1.067a.354.354,0,0,0-.063.133.364.364,0,0,0,.006.171l11.161,4.368,2.217.868,1.444.565a.616.616,0,0,0,.171-.3C379.215,270.94,378.508,270.368,377.687,269.782Z" transform="translate(-360.711 -260.224)"/>
          <path id="Tracé_2158" data-name="Tracé 2158" class="cls-5" d="M545.84,289.377a29.642,29.642,0,0,0,.315-4.1l-1.441-.206-1.441-.206-6.445-.92-1.161,8.124,6.444.921,1.442.206L545,293.4A29.539,29.539,0,0,0,545.84,289.377Z" transform="translate(-446.238 -270.02)"/>
          <path id="Tracé_2159" data-name="Tracé 2159" class="cls-25" d="M362.692,267.637c.153-.59-1.774-1.341-1.948-2.023a.364.364,0,0,1-.006-.171.354.354,0,0,1,.063-.133c.389-.531,2.269-.422,2.364-.983.041-.24-.257-.536-.675-.788l-5.138,1.436,4.851,3.017C362.463,267.913,362.651,267.8,362.692,267.637Z" transform="translate(-357.352 -259.849)"/>
          <path id="Tracé_2160" data-name="Tracé 2160" class="cls-26" d="M390.15,257.562c-.019.731.729,1.258,1.445,1.747a4.467,4.467,0,0,1,1.131.939l.912-.082.671-.06,62.444,8.921.5-3.529-64.46-9.209-.757-.108-1.484.415A1.7,1.7,0,0,0,390.15,257.562Z" transform="translate(-373.701 -256.181)"/>
          <rect id="Rectangle_547" data-name="Rectangle 547" class="cls-27" width="3.565" height="7.614" transform="matrix(0.141, -0.99, 0.99, 0.141, 83.053, 12.847)"/>
          <rect id="Rectangle_548" data-name="Rectangle 548" class="cls-28" width="3.565" height="7.614" transform="matrix(0.141, -0.99, 0.99, 0.141, 81.388, 24.5)"/>
          <path id="Tracé_2161" data-name="Tracé 2161" class="cls-29" d="M453.522,288.649l-62.445-8.922L391,279.7l-1.152-.451a3.522,3.522,0,0,1-1.612.6c-.961.212-1.991.423-2.2,1.109a1.375,1.375,0,0,0,.071.848l1.7,1.056,1.947.278,63.269,9.039Z" transform="translate(-371.629 -267.677)"/>
          <path id="Tracé_2162" data-name="Tracé 2162" class="cls-5" d="M392.621,264.008l-.671.06-.912.082a.716.716,0,0,1,.142.487c-.058.533-.787.843-1.636,1.12a7.657,7.657,0,0,0-2.488,1.034.854.854,0,0,0-.283.482.875.875,0,0,0,.13.585,7.762,7.762,0,0,0,2.086,1.784c.822.586,1.528,1.158,1.409,1.707a.616.616,0,0,1-.171.3l1.152.451.081.032,62.445,8.922,1.161-8.125Z" transform="translate(-372.012 -260.083)"/>
          <rect id="Rectangle_549" data-name="Rectangle 549" class="cls-30" width="8.207" height="7.614" transform="translate(81.893 20.971) rotate(-81.869)"/>
        </g>
        <path id="Tracé_2163" data-name="Tracé 2163" class="cls-18" d="M474.444,321.317a.516.516,0,0,1-.013-.07l-.016-.1-.029-.225c-.02-.151-.034-.313-.05-.471-.028-.322-.05-.647-.065-.975-.031-.657-.034-1.323-.017-1.989a34.005,34.005,0,0,1,.34-3.993,39.5,39.5,0,0,1,1.965-7.772A43.488,43.488,0,0,1,480,298.479a49.734,49.734,0,0,1,4.647-6.557v0a.912.912,0,0,0-.154-1.264.887.887,0,0,0-1.209,0,51.332,51.332,0,0,0-5.349,6.381,45.448,45.448,0,0,0-4.221,7.311,41.994,41.994,0,0,0-2.76,8.17,36.97,36.97,0,0,0-.711,4.365c-.076.743-.13,1.493-.151,2.256-.012.382-.015.767-.01,1.158.005.2.008.392.018.6l.017.309.012.163.019.2a2.4,2.4,0,0,0,2.452,2.048A1.969,1.969,0,0,0,474.444,321.317Z" transform="translate(-413.544 -273.248)"/>
      </g>
    </g>
    <g id="Groupe_389" data-name="Groupe 389" transform="translate(176.776 36.288)">
      <path id="Tracé_2164" data-name="Tracé 2164" class="cls-10" d="M351.108,193.7l-.307,4.1-2.049-.2-.2-4.2Z" transform="translate(-337.524 -117.556)"/>
      <path id="Tracé_2165" data-name="Tracé 2165" class="cls-10" d="M389.111,189.031l1.508,3.824-1.934.708-2.014-3.693Z" transform="translate(-356.528 -115.379)"/>
      <path id="Tracé_2166" data-name="Tracé 2166" class="cls-13" d="M344.961,199.936l-3.382.512s-3.382,2.255-4.714,2.357-2.664,1.332-1.332,1.537,9.837-.41,9.837-.41Z" transform="translate(-330.762 -120.815)"/>
      <path id="Tracé_2167" data-name="Tracé 2167" class="cls-13" d="M373.734,129.856s-18,2.359-17.491,7.482-5.332,22.5-5.332,22.5l-4.816-.1s3.4-21.972,3.4-25.046,16.866-9.852,16.866-9.852Z" transform="translate(-336.302 -83.379)"/>
      <path id="Tracé_2168" data-name="Tracé 2168" class="cls-14" d="M391.174,69.463l-5.124,2.152s-3.916,21.033-2.972,24.286c.922,3.177,4.714,2.665,4.714,2.665l9.837-.41-.82-11.887Z" transform="translate(-354.664 -55.778)"/>
      <path id="Tracé_2169" data-name="Tracé 2169" class="cls-10" d="M382.456,50.974s-1.332,7.993,3.792,7.993l-.2,5.533,4.714-2.049-.307-12.195-6.251-.205Z" transform="translate(-354.349 -46.102)"/>
      <path id="Tracé_2170" data-name="Tracé 2170" class="cls-31" d="M386.16,46.844s-5.636,1.23-5.738.1-1.127-6.148,4.1-4.406,7.173,1.742,6.661,4.2-1.434,5.432-1.434,5.432l-1.025-.41-.615-2.562s1.947-1.127.615-2.049-1.537.717-1.537.717Z" transform="translate(-353.339 -42.176)"/>
      <path id="Tracé_2171" data-name="Tracé 2171" class="cls-31" d="M386.97,195.441l-3.484,1.332s-.205,2.459-1.537,2.767-3.382,1.332-3.177,2.152,6.148-.41,6.148-.41l3.894-3.074Z" transform="translate(-352.583 -118.575)"/>
      <path id="Tracé_2172" data-name="Tracé 2172" class="cls-10" d="M363.99,113.568c-.069.009-.207.011-.317.012s-.237,0-.358-.009c-.24-.01-.482-.031-.721-.063a7.751,7.751,0,0,1-1.395-.312,5.392,5.392,0,0,1-1.229-.605,3.983,3.983,0,0,1-.938-.937l-.046-.062a.775.775,0,0,0-1.311.816,5.631,5.631,0,0,0,1.162,1.555,7.231,7.231,0,0,0,1.57,1.076,9.757,9.757,0,0,0,1.73.655c.295.082.592.151.895.206.15.03.3.052.457.075s.3.04.5.052l.076,0a1.238,1.238,0,0,0,.146-2.471A1.36,1.36,0,0,0,363.99,113.568Z" transform="translate(-342.031 -76.621)"/>
      <path id="Tracé_2173" data-name="Tracé 2173" class="cls-32" d="M384.8,71.683s-6.968-.82-4.816,6.353,5.636,10.145.717,11.784-11.375,3.587-11.375,3.587l.41,3.894s21.417,1.025,21.827-4.3S388.9,77.216,388.39,76.089A15.064,15.064,0,0,0,384.8,71.683Z" transform="translate(-347.884 -56.87)"/>
      <path id="Tracé_2174" data-name="Tracé 2174" class="cls-31" d="M386.386,125.04s3.087,5.275-1.349,8.331c-3.751,2.584-15.182,2.939-14.807,3.784.82,1.844,8.5,21.04,8.5,21.04l-4.611,1.127s-11.558-16.614-12.275-21.738S374.5,125.859,374.5,125.859Z" transform="translate(-344.138 -83.482)"/>
      <path id="Tracé_2175" data-name="Tracé 2175" class="cls-29" d="M344.259,110.424h19.593a1.225,1.225,0,0,0,1.221-1.221h0a1.225,1.225,0,0,0-1.221-1.221H344.259a1.225,1.225,0,0,0-1.221,1.221h0A1.225,1.225,0,0,0,344.259,110.424Z" transform="translate(-334.778 -74.979)"/>
      <path id="Tracé_2176" data-name="Tracé 2176" class="cls-29" d="M337.522,90.727,328.951,73.66a1.276,1.276,0,0,0-1.679-.561h0a1.211,1.211,0,0,0-.577,1.633L335.266,91.8a1.275,1.275,0,0,0,1.679.561h0A1.21,1.21,0,0,0,337.522,90.727Z" transform="translate(-326.569 -57.529)"/>
    </g>
    <path id="Tracé_2177" data-name="Tracé 2177" class="cls-12" d="M194.784,452.329v-6.217H171.666l.077,3.572C171.73,450.345,194.784,452.329,194.784,452.329Z" transform="translate(-72.578 -207.24)"/>
    <path id="Tracé_2178" data-name="Tracé 2178" class="cls-33" d="M195.89,461.255a1.336,1.336,0,1,0-1.336,1.336A1.336,1.336,0,0,0,195.89,461.255Z" transform="translate(-83.321 -214.123)"/>
  </g>
</svg>
