<svg xmlns="http://www.w3.org/2000/svg" width="42.891" height="44.294" viewBox="0 0 42.891 44.294">
  <defs>
    <style>
      .cls-1 {
        fill: #fff;
        fill-rule: evenodd;
      }
    </style>
  </defs>
  <path id="Tracé_2629" data-name="Tracé 2629" class="cls-1" d="M225.977,322.871h17.087v1.287a2.912,2.912,0,0,0,2.893,2.914h0a2.907,2.907,0,0,0,2.893-2.914v-1.287a5.146,5.146,0,0,1,5.112,5.15v13.473a12.309,12.309,0,0,0-2.556-1.355v-9.813H217.635v23.584a2.573,2.573,0,0,0,2.556,2.575h14.988a12.481,12.481,0,0,0,1.345,2.575H220.191a5.147,5.147,0,0,1-5.112-5.15V328.022a5.146,5.146,0,0,1,5.112-5.15v1.287a2.912,2.912,0,0,0,2.893,2.914h0a2.907,2.907,0,0,0,2.893-2.914ZM246.9,340.789a11.155,11.155,0,1,1-11.073,11.155A11.114,11.114,0,0,1,246.9,340.789Zm1.278,9.867h3.512a1.288,1.288,0,0,1,0,2.575H246.9a1.282,1.282,0,0,1-1.278-1.288V346.36a1.278,1.278,0,1,1,2.556,0Zm-1.278-7.292a8.58,8.58,0,1,1-8.516,8.58,8.55,8.55,0,0,1,8.516-8.58Zm-.942-24.559h0a1.422,1.422,0,0,1,1.413,1.423v3.931a1.418,1.418,0,0,1-1.413,1.423h0a1.422,1.422,0,0,1-1.413-1.423v-3.931a1.426,1.426,0,0,1,1.413-1.423ZM243.6,332.9h5.247v5.286H243.6Zm-7.8,7.862h5.233a12.627,12.627,0,0,0-5.233,5.272Zm0-7.862h5.247v5.286H235.8Zm-7.8,15.722h5.247v5.286h-5.247Zm0-7.861h5.247v5.286h-5.247Zm0-7.862h5.247v5.286h-5.247Zm-7.8,15.722h5.247v5.286h-5.247Zm0-7.861h5.247v5.286h-5.247Zm0-7.862h5.247v5.286h-5.247Zm2.893-14.1h0a1.422,1.422,0,0,1,1.413,1.423v3.931a1.418,1.418,0,0,1-1.413,1.423h0a1.422,1.422,0,0,1-1.413-1.423v-3.931a1.426,1.426,0,0,1,1.413-1.423Z" transform="translate(-215.079 -318.805)"/>
</svg>
