<?xml version="1.0" standalone="no"?>
<!DOCTYPE svg PUBLIC "-//W3C//DTD SVG 20010904//EN"
 "http://www.w3.org/TR/2001/REC-SVG-20010904/DTD/svg10.dtd">
<svg version="1.0" xmlns="http://www.w3.org/2000/svg"
 width="1049.000000pt" height="1049.000000pt" viewBox="0 0 1049.000000 1049.000000"
 preserveAspectRatio="xMidYMid meet">
<metadata>
Created by potrace 1.11, written by Peter Selinger 2001-2013
</metadata>
<g transform="translate(0.000000,1049.000000) scale(0.100000,-0.100000)"
fill="#000000" stroke="none">
<path d="M4978 10486 c-1 -2 -50 -6 -108 -10 -58 -3 -114 -8 -125 -10 -11 -2
-56 -7 -100 -11 -44 -4 -89 -9 -100 -11 -11 -2 -65 -10 -120 -18 -55 -9 -111
-18 -125 -21 -14 -3 -41 -8 -60 -11 -50 -8 -353 -81 -430 -103 -208 -60 -481
-157 -625 -221 -33 -15 -80 -35 -105 -46 -192 -82 -551 -283 -755 -422 -647
-440 -1130 -943 -1557 -1622 -210 -334 -405 -767 -540 -1200 -25 -81 -79 -281
-93 -344 -42 -187 -89 -468 -100 -585 -4 -41 -9 -84 -11 -94 -26 -136 -25
-833 1 -1022 3 -16 7 -57 10 -90 6 -63 31 -242 40 -285 3 -14 8 -41 11 -60 3
-19 12 -66 21 -105 8 -38 21 -101 30 -140 46 -218 209 -716 309 -943 219 -497
451 -879 773 -1272 218 -266 481 -523 784 -766 110 -89 390 -281 512 -351 37
-21 81 -46 98 -57 73 -43 282 -149 403 -204 346 -158 818 -306 1134 -357 19
-3 55 -10 80 -15 46 -10 56 -11 200 -30 200 -26 273 -33 480 -46 190 -12 614
-7 820 11 25 2 81 7 125 10 44 4 94 8 110 11 17 2 55 6 85 9 73 8 108 12 150
19 19 4 49 8 65 10 88 12 190 28 195 31 3 2 26 6 50 10 25 4 88 16 140 27 52
11 107 22 122 24 20 4 317 77 438 108 8 2 159 45 335 94 379 107 560 153 710
181 220 41 281 46 505 46 211 -1 306 -9 456 -40 141 -29 376 -101 487 -148 18
-8 57 -25 87 -37 112 -48 420 -209 558 -293 l143 -87 -4 2463 c-2 1354 -6
2480 -10 2502 -3 22 -9 69 -12 105 -3 36 -8 72 -10 80 -2 8 -6 37 -10 64 -33
261 -136 604 -260 863 -196 409 -448 713 -835 1006 -44 34 -179 120 -248 159
-482 272 -1041 406 -1614 388 l-78 -3 119 -123 c344 -356 589 -745 765 -1214
57 -152 123 -390 151 -545 25 -136 45 -261 50 -315 3 -36 8 -82 11 -103 13
-97 6 -428 -12 -552 -3 -22 -7 -51 -9 -65 -32 -233 -104 -487 -209 -735 -81
-194 -281 -531 -397 -670 -9 -11 -52 -63 -95 -114 -115 -139 -312 -334 -439
-436 -28 -22 -52 -42 -55 -45 -10 -11 -187 -139 -245 -177 -222 -147 -492
-281 -750 -373 -92 -32 -308 -95 -358 -104 -15 -2 -35 -7 -45 -10 -9 -3 -33
-7 -52 -10 -19 -3 -45 -8 -57 -10 -11 -3 -43 -7 -70 -11 -26 -4 -59 -9 -73
-11 -161 -26 -577 -26 -770 1 -19 3 -51 7 -70 10 -109 15 -299 55 -401 85
-585 171 -1098 497 -1499 950 -41 47 -77 87 -80 90 -19 18 -118 152 -182 245
-243 355 -433 793 -523 1204 -3 11 -7 31 -10 43 -3 13 -9 48 -15 78 -6 30 -12
64 -14 75 -2 11 -7 40 -10 65 -3 25 -8 54 -10 65 -27 141 -28 639 -1 784 1 9
6 36 10 61 3 25 9 59 11 75 21 134 115 450 179 600 79 185 269 517 367 640 19
24 79 101 86 110 71 98 328 360 469 478 156 131 386 289 551 379 135 73 425
219 484 243 221 92 526 191 803 261 27 6 204 44 230 49 17 2 41 7 55 10 14 3
39 7 55 10 17 3 41 8 55 10 14 3 45 8 70 10 25 3 55 7 67 9 12 3 53 8 90 11
37 4 84 8 103 11 179 22 692 22 885 -1 17 -2 57 -6 90 -10 140 -14 161 -16
181 -20 12 -3 52 -9 90 -15 130 -19 139 -21 164 -26 14 -3 36 -8 50 -10 55
-10 177 -35 210 -44 19 -5 46 -11 60 -14 173 -32 673 -182 958 -287 254 -93
645 -253 892 -364 159 -71 408 -189 542 -256 87 -44 86 -47 25 71 -176 335
-407 672 -672 980 -130 152 -440 460 -552 550 -10 8 -57 47 -103 85 -189 157
-444 333 -675 467 -165 96 -481 256 -640 323 -144 61 -535 195 -613 210 -11 2
-37 8 -58 14 -200 57 -590 126 -824 146 -41 4 -88 9 -105 11 -33 5 -661 14
-667 10z"/>
</g>
</svg>
